<svg id="svg" xmlns="http://www.w3.org/2000/svg" xmlns:xlink="http://www.w3.org/1999/xlink" width="400" height="318.6666666666667" viewBox="0, 0, 400,318.6666666666667"><g id="svgg"><path id="path0" d="M121.667 1.258 C 101.466 7.134,88.767 27.434,92.912 47.222 L 93.797 51.445 91.399 52.957 C 68.333 67.503,62.414 70.801,61.572 69.573 C 55.135 60.182,47.956 55.486,37.667 53.936 C 6.549 49.248,-12.669 86.620,9.430 108.848 C 32.655 132.208,73.420 109.608,65.017 78.031 C 64.484 76.031,64.113 74.344,64.191 74.282 C 64.400 74.116,94.253 55.845,94.788 55.556 C 95.038 55.421,96.234 57.169,97.445 59.441 C 101.646 67.324,111.261 75.103,120.060 77.739 C 122.227 78.388,124.000 79.230,124.000 79.611 C 124.000 80.946,103.771 174.338,103.388 174.774 C 103.050 175.159,63.970 170.840,63.480 170.363 C 63.377 170.264,63.015 168.475,62.676 166.389 C 57.970 137.475,14.333 141.035,14.333 170.333 C 14.333 197.814,54.258 203.573,62.122 177.227 L 63.000 174.285 82.667 176.568 C 93.483 177.824,102.416 178.918,102.517 178.999 C 102.619 179.080,101.848 183.013,100.806 187.740 L 98.910 196.333 93.288 196.750 C 61.091 199.138,61.766 244.333,94.000 244.333 C 118.653 244.333,128.043 211.446,106.667 199.971 C 102.230 197.589,102.384 198.334,104.379 188.927 C 105.382 184.200,106.381 180.130,106.601 179.880 C 106.820 179.631,114.350 180.303,123.333 181.374 C 132.317 182.444,139.817 183.324,140.000 183.329 C 140.183 183.333,140.363 186.861,140.399 191.169 C 140.504 203.823,143.609 215.667,149.557 226.104 L 152.400 231.094 114.098 256.086 L 75.795 281.079 73.857 277.373 C 57.783 246.633,9.774 265.734,19.988 298.805 C 29.605 329.941,76.871 322.617,76.815 290.000 L 76.806 285.000 115.151 260.000 C 136.241 246.250,153.750 234.903,154.060 234.785 C 154.369 234.667,157.387 237.462,160.767 240.997 C 190.537 272.138,239.937 272.776,271.192 242.424 L 274.718 239.000 280.415 244.798 L 286.113 250.596 284.029 253.624 C 270.157 273.787,292.522 299.661,314.798 289.220 C 329.658 282.254,333.347 262.119,321.867 250.639 L 318.842 247.614 323.161 236.974 L 327.479 226.333 334.573 226.333 C 356.617 226.333,368.336 201.743,353.536 186.541 L 351.142 184.081 359.618 147.541 C 364.279 127.443,368.383 109.875,368.739 108.500 C 369.342 106.166,369.552 106.000,371.905 106.000 C 389.797 106.000,404.669 84.716,398.993 67.231 C 389.699 38.601,348.984 38.534,339.707 67.132 C 338.358 71.289,339.796 70.967,318.000 71.987 C 309.750 72.373,300.699 72.870,297.886 73.092 L 292.772 73.496 291.110 70.218 C 282.701 53.623,258.228 52.644,247.965 68.491 L 247.000 69.981 210.667 56.748 L 174.333 43.515 173.870 37.997 C 171.660 11.691,146.551 -5.980,121.667 1.258 M210.436 60.705 C 245.533 73.462,245.866 73.600,245.269 75.169 C 237.779 94.869,267.936 114.504,283.982 100.375 C 284.863 99.599,286.286 100.715,294.555 108.671 L 304.110 117.863 302.414 120.431 C 291.970 136.253,302.817 156.572,321.833 156.806 C 324.492 156.839,326.667 156.987,326.667 157.135 C 326.667 157.283,327.417 162.052,328.333 167.731 C 330.273 179.753,330.243 179.333,329.167 179.334 C 325.545 179.336,317.334 185.261,314.296 190.064 C 307.431 200.917,311.367 217.420,322.167 223.074 C 323.175 223.602,324.000 224.199,324.000 224.401 C 324.000 224.773,315.933 244.818,315.622 245.218 C 315.529 245.338,313.626 244.923,311.394 244.297 C 305.374 242.608,298.558 243.198,293.176 245.875 L 289.000 247.952 283.167 242.156 C 276.301 235.336,276.610 236.589,280.401 230.935 C 319.499 172.630,261.159 97.583,193.266 118.846 L 188.350 120.386 178.656 105.026 C 173.325 96.578,166.467 85.704,163.416 80.862 L 157.869 72.056 162.135 67.791 C 166.405 63.521,170.365 57.029,171.970 51.667 C 172.409 50.200,172.898 48.594,173.056 48.097 C 173.215 47.601,173.717 47.337,174.172 47.510 C 174.628 47.683,190.946 53.621,210.436 60.705 M169.539 98.142 L 184.543 121.951 179.438 124.697 C 160.100 135.100,143.760 157.278,141.524 176.157 C 141.208 178.825,140.922 179.334,139.740 179.336 C 138.201 179.338,107.778 175.871,107.487 175.661 C 107.389 175.589,111.964 154.003,117.654 127.693 C 123.344 101.382,128.000 79.812,128.001 79.761 C 128.001 79.709,130.326 79.661,133.168 79.655 C 139.477 79.640,145.040 78.467,150.333 76.036 C 155.122 73.837,151.850 70.071,169.539 98.142 M338.674 77.833 C 338.701 89.704,348.491 101.563,361.153 105.063 C 365.108 106.156,365.285 106.293,364.862 107.939 C 364.618 108.889,360.649 125.870,356.043 145.673 L 347.667 181.679 344.000 180.194 C 341.983 179.376,338.914 178.698,337.179 178.687 C 333.507 178.663,333.980 179.753,331.968 166.667 C 331.207 161.717,330.457 157.217,330.302 156.667 C 330.112 155.996,330.958 155.280,332.872 154.491 C 344.779 149.583,349.593 132.815,342.371 121.398 C 335.522 110.569,320.489 107.074,309.770 113.817 L 307.207 115.430 299.104 107.597 C 294.647 103.289,290.304 99.114,289.452 98.320 L 287.905 96.875 289.864 93.937 C 292.940 89.324,293.667 86.144,293.667 77.286 C 293.667 77.213,333.297 74.851,336.167 74.753 L 338.667 74.667 338.674 77.833 " stroke="none" fill="#FFFFFF" fill-rule="evenodd"></path></g></svg>